<svg width="1440" height="836" viewBox="0 0 1440 836" fill="none" xmlns="http://www.w3.org/2000/svg">
<g clip-path="url(#clip0)">
<rect width="1440" height="836" fill="white"/>
<rect width="1440" height="836" fill="#2E2E2E"/>
<g opacity="0.2">
<g clip-path="url(#clip1)">
<path d="M-225.915 -237.447L1846.37 16.5997" stroke="white" stroke-miterlimit="10"/>
<path d="M-232.948 -180.075L1839.34 73.9717" stroke="white" stroke-miterlimit="10"/>
<path d="M-239.983 -122.688L1832.3 131.358" stroke="white" stroke-miterlimit="10"/>
<path d="M-247.017 -65.3164L1825.27 188.73" stroke="white" stroke-miterlimit="10"/>
<path d="M-254.05 -7.94434L1818.24 246.102" stroke="white" stroke-miterlimit="10"/>
<path d="M-261.084 49.4277L1811.2 303.474" stroke="white" stroke-miterlimit="10"/>
<path d="M-268.119 106.814L1804.17 360.861" stroke="white" stroke-miterlimit="10"/>
<path d="M-275.152 164.186L1797.14 418.233" stroke="white" stroke-miterlimit="10"/>
<path d="M-282.186 221.558L1790.1 475.605" stroke="white" stroke-miterlimit="10"/>
<path d="M-289.219 278.93L1783.07 532.977" stroke="white" stroke-miterlimit="10"/>
<path d="M-296.254 336.317L1776.03 590.363" stroke="white" stroke-miterlimit="10"/>
<path d="M-303.287 393.689L1769 647.736" stroke="white" stroke-miterlimit="10"/>
<path d="M-310.321 451.061L1761.97 705.108" stroke="white" stroke-miterlimit="10"/>
<path d="M-317.354 508.433L1754.93 762.48" stroke="white" stroke-miterlimit="10"/>
<path d="M-324.389 565.819L1747.9 819.866" stroke="white" stroke-miterlimit="10"/>
<path d="M-331.423 623.191L1740.86 877.238" stroke="white" stroke-miterlimit="10"/>
<path d="M-338.456 680.563L1733.83 934.61" stroke="white" stroke-miterlimit="10"/>
<path d="M-345.49 737.936L1726.8 991.982" stroke="white" stroke-miterlimit="10"/>
<path d="M-352.525 795.322L1719.76 1049.37" stroke="white" stroke-miterlimit="10"/>
<path d="M1550.95 -78.5798L1403.07 1127.74" stroke="white" stroke-miterlimit="10"/>
<path d="M1500.4 -84.7771L1352.51 1121.54" stroke="white" stroke-miterlimit="10"/>
<path d="M1449.86 -90.9724L1301.98 1115.35" stroke="white" stroke-miterlimit="10"/>
<path d="M1399.31 -97.1696L1251.43 1109.15" stroke="white" stroke-miterlimit="10"/>
<path d="M1348.78 -103.365L1200.89 1102.96" stroke="white" stroke-miterlimit="10"/>
<path d="M1298.23 -109.562L1150.34 1096.76" stroke="white" stroke-miterlimit="10"/>
<path d="M1247.69 -115.757L1099.8 1090.56" stroke="white" stroke-miterlimit="10"/>
<path d="M1197.14 -121.954L1049.25 1084.37" stroke="white" stroke-miterlimit="10"/>
<path d="M1146.6 -128.15L998.718 1078.17" stroke="white" stroke-miterlimit="10"/>
<path d="M1096.05 -134.347L948.168 1071.97" stroke="white" stroke-miterlimit="10"/>
<path d="M1045.52 -140.542L897.631 1065.78" stroke="white" stroke-miterlimit="10"/>
<path d="M994.966 -146.74L847.081 1059.58" stroke="white" stroke-miterlimit="10"/>
<path d="M944.43 -152.935L796.545 1053.39" stroke="white" stroke-miterlimit="10"/>
<path d="M893.88 -159.132L745.994 1047.19" stroke="white" stroke-miterlimit="10"/>
<path d="M843.344 -165.327L695.458 1040.99" stroke="white" stroke-miterlimit="10"/>
<path d="M792.793 -171.524L644.907 1034.8" stroke="white" stroke-miterlimit="10"/>
<path d="M742.257 -177.72L594.371 1028.6" stroke="white" stroke-miterlimit="10"/>
<path d="M691.706 -183.917L543.82 1022.4" stroke="white" stroke-miterlimit="10"/>
<path d="M641.17 -190.112L493.284 1016.21" stroke="white" stroke-miterlimit="10"/>
<path d="M590.619 -196.309L442.733 1010.01" stroke="white" stroke-miterlimit="10"/>
<path d="M540.083 -202.505L392.197 1003.82" stroke="white" stroke-miterlimit="10"/>
<path d="M489.532 -208.702L341.647 997.619" stroke="white" stroke-miterlimit="10"/>
<path d="M438.996 -214.897L291.111 991.424" stroke="white" stroke-miterlimit="10"/>
<path d="M388.446 -221.094L240.56 985.227" stroke="white" stroke-miterlimit="10"/>
<path d="M337.909 -227.29L190.024 979.032" stroke="white" stroke-miterlimit="10"/>
<path d="M287.359 -233.487L139.473 972.834" stroke="white" stroke-miterlimit="10"/>
<path d="M236.823 -239.682L88.9368 966.639" stroke="white" stroke-miterlimit="10"/>
<path d="M186.272 -245.879L38.3862 960.442" stroke="white" stroke-miterlimit="10"/>
<path d="M135.736 -252.075L-12.1501 954.247" stroke="white" stroke-miterlimit="10"/>
<path d="M85.1851 -258.272L-62.7007 948.05" stroke="white" stroke-miterlimit="10"/>
<path d="M34.6487 -264.467L-113.237 941.854" stroke="white" stroke-miterlimit="10"/>
</g>
</g>
</g>
<defs>
<clipPath id="clip0">
<rect width="1440" height="836" fill="white"/>
</clipPath>
<clipPath id="clip1">
<rect x="-29.2263" y="-151.725" width="1677.79" height="976" transform="rotate(6.98915 -29.2263 -151.725)" fill="white"/>
</clipPath>
</defs>
</svg>
