<svg width="1678" height="977" viewBox="0 0 1678 977" fill="none" xmlns="http://www.w3.org/2000/svg">
<g opacity="0.2">
<g clip-path="url(#clip0)">
<path d="M-205.499 55.1926H1882.3" stroke="white" stroke-miterlimit="10"/>
<path d="M-205.499 112.994H1882.3" stroke="white" stroke-miterlimit="10"/>
<path d="M-205.499 170.796H1882.3" stroke="white" stroke-miterlimit="10"/>
<path d="M-205.499 228.597H1882.3" stroke="white" stroke-miterlimit="10"/>
<path d="M-205.499 286.413H1882.3" stroke="white" stroke-miterlimit="10"/>
<path d="M-205.499 344.215H1882.3" stroke="white" stroke-miterlimit="10"/>
<path d="M-205.499 402.017H1882.3" stroke="white" stroke-miterlimit="10"/>
<path d="M-205.499 459.818H1882.3" stroke="white" stroke-miterlimit="10"/>
<path d="M-205.499 517.634H1882.3" stroke="white" stroke-miterlimit="10"/>
<path d="M-205.499 575.436H1882.3" stroke="white" stroke-miterlimit="10"/>
<path d="M-205.499 633.237H1882.3" stroke="white" stroke-miterlimit="10"/>
<path d="M-205.499 691.039H1882.3" stroke="white" stroke-miterlimit="10"/>
<path d="M-205.499 748.855H1882.3" stroke="white" stroke-miterlimit="10"/>
<path d="M-205.499 806.656H1882.3" stroke="white" stroke-miterlimit="10"/>
<path d="M-205.499 864.458H1882.3" stroke="white" stroke-miterlimit="10"/>
<path d="M-205.499 922.26H1882.3" stroke="white" stroke-miterlimit="10"/>
<path d="M1628.41 -118.95V1096.4" stroke="white" stroke-miterlimit="10"/>
<path d="M1577.5 -118.95V1096.4" stroke="white" stroke-miterlimit="10"/>
<path d="M1526.57 -118.95V1096.4" stroke="white" stroke-miterlimit="10"/>
<path d="M1475.65 -118.95V1096.4" stroke="white" stroke-miterlimit="10"/>
<path d="M1424.72 -118.95V1096.4" stroke="white" stroke-miterlimit="10"/>
<path d="M1373.81 -118.95V1096.4" stroke="white" stroke-miterlimit="10"/>
<path d="M1322.88 -118.95V1096.4" stroke="white" stroke-miterlimit="10"/>
<path d="M1271.96 -118.95V1096.4" stroke="white" stroke-miterlimit="10"/>
<path d="M1221.04 -118.95V1096.4" stroke="white" stroke-miterlimit="10"/>
<path d="M1170.12 -118.95V1096.4" stroke="white" stroke-miterlimit="10"/>
<path d="M1119.19 -118.95V1096.4" stroke="white" stroke-miterlimit="10"/>
<path d="M1068.28 -118.95V1096.4" stroke="white" stroke-miterlimit="10"/>
<path d="M1017.35 -118.95V1096.4" stroke="white" stroke-miterlimit="10"/>
<path d="M966.434 -118.95V1096.4" stroke="white" stroke-miterlimit="10"/>
<path d="M915.504 -118.95V1096.4" stroke="white" stroke-miterlimit="10"/>
<path d="M864.59 -118.95V1096.4" stroke="white" stroke-miterlimit="10"/>
<path d="M813.661 -118.95V1096.4" stroke="white" stroke-miterlimit="10"/>
<path d="M762.746 -118.95V1096.4" stroke="white" stroke-miterlimit="10"/>
<path d="M711.817 -118.95V1096.4" stroke="white" stroke-miterlimit="10"/>
<path d="M660.903 -118.95V1096.4" stroke="white" stroke-miterlimit="10"/>
<path d="M609.974 -118.95V1096.4" stroke="white" stroke-miterlimit="10"/>
<path d="M559.059 -118.95V1096.4" stroke="white" stroke-miterlimit="10"/>
<path d="M508.13 -118.95V1096.4" stroke="white" stroke-miterlimit="10"/>
<path d="M457.215 -118.95V1096.4" stroke="white" stroke-miterlimit="10"/>
<path d="M406.286 -118.95V1096.4" stroke="white" stroke-miterlimit="10"/>
<path d="M355.372 -118.95V1096.4" stroke="white" stroke-miterlimit="10"/>
<path d="M304.443 -118.95V1096.4" stroke="white" stroke-miterlimit="10"/>
<path d="M253.528 -118.95V1096.4" stroke="white" stroke-miterlimit="10"/>
<path d="M202.599 -118.95V1096.4" stroke="white" stroke-miterlimit="10"/>
<path d="M151.685 -118.95V1096.4" stroke="white" stroke-miterlimit="10"/>
<path d="M100.755 -118.95V1096.4" stroke="white" stroke-miterlimit="10"/>
<path d="M49.8408 -118.95V1096.4" stroke="white" stroke-miterlimit="10"/>
</g>
</g>
<defs>
<clipPath id="clip0">
<rect x="0.15918" y="0.726196" width="1677.79" height="976" fill="white"/>
</clipPath>
</defs>
</svg>
